<svg id="justice" xmlns="http://www.w3.org/2000/svg" width="94.118" height="94.13" viewBox="0 0 94.118 94.13">
  <g id="Group_3325" data-name="Group 3325" transform="translate(0 0)">
    <path id="Path_364" data-name="Path 364" d="M93.875,56.214l-14.06-28.1h8.247a2.736,2.736,0,0,0,2.728-2.17,2.614,2.614,0,0,0-2.573-3.054H67.77a23.567,23.567,0,0,1-11.58-3.038,9.7,9.7,0,0,0-6.48-12.8V2.764A2.736,2.736,0,0,0,47.54.036a2.614,2.614,0,0,0-3.054,2.573V7.042a9.773,9.773,0,0,0-7.131,9.378,9.34,9.34,0,0,0,.636,3.426,23.567,23.567,0,0,1-11.58,3.038H6.136a2.736,2.736,0,0,0-2.728,2.17A2.614,2.614,0,0,0,5.98,28.109h8.371L.307,56.214a2.731,2.731,0,0,0-.279,1.318,18.571,18.571,0,0,0,37.142,0,2.6,2.6,0,0,0-.279-1.318l-14.06-28.1h3.581a28.975,28.975,0,0,0,14.711-4.015A9.659,9.659,0,0,0,44.5,25.8V78.009a17.792,17.792,0,0,0-14.494,12.8,2.614,2.614,0,0,0,2.527,3.317h29.19a2.629,2.629,0,0,0,2.527-3.317,17.838,17.838,0,0,0-14.494-12.8V25.768a9.649,9.649,0,0,0,3.348-1.705,28.738,28.738,0,0,0,14.711,4.015H71.4L57.275,56.213A2.584,2.584,0,0,0,57,57.531a18.571,18.571,0,0,0,37.142,0A2.516,2.516,0,0,0,93.875,56.214ZM18.614,70.723A13.385,13.385,0,0,1,5.515,60H31.7A13.353,13.353,0,0,1,18.614,70.723ZM30.334,54.772H6.88L18.614,31.333Zm27.36,34.135H36.488a12.523,12.523,0,0,1,21.206,0Zm-10.6-67.99a4.5,4.5,0,1,1,0-8.991h.031a4.5,4.5,0,1,1-.031,8.991ZM75.567,31.333,87.3,54.772H63.848Zm0,39.39A13.355,13.355,0,0,1,62.484,60H88.666A13.369,13.369,0,0,1,75.567,70.723Z" transform="translate(-0.026 0)" fill="#fff"/>
  </g>
</svg>
