<svg xmlns="http://www.w3.org/2000/svg" width="11.63" height="11.63" viewBox="0 0 11.63 11.63">
  <g id="Group_640" data-name="Group 640" transform="translate(2345.955 1705)">
    <g id="Group_382" data-name="Group 382" transform="translate(-2345.955 -1705)">
      <path id="Icon_material-notifications-active" data-name="Icon material-notifications-active" d="M6.282,4.692l-.834-.853a6.26,6.26,0,0,0-2.4,4.682H4.211A5.065,5.065,0,0,1,6.282,4.692Zm7.226,3.829h1.166a6.3,6.3,0,0,0-2.4-4.682l-.828.853a5.1,5.1,0,0,1,2.065,3.829Zm-1.149.3A3.627,3.627,0,0,0,9.735,5.05V4.645a.875.875,0,1,0-1.75,0V5.05A3.616,3.616,0,0,0,5.36,8.819V11.8L4.194,12.994v.6h9.332v-.6L12.359,11.8Zm-3.5,6.56a1,1,0,0,0,.233-.024,1.19,1.19,0,0,0,.84-.7,1.221,1.221,0,0,0,.087-.465H7.688A1.188,1.188,0,0,0,8.86,15.38Z" transform="translate(-3.045 -3.75)" fill="#f6f9fb"/>
    </g>
  </g>
</svg>
