<svg xmlns="http://www.w3.org/2000/svg" width="21.817" height="39.724" viewBox="0 0 21.817 39.724">
  <path id="Path_363" data-name="Path 363" d="M17.119,11.675a7.429,7.429,0,0,1-2.375,5.591A10.812,10.812,0,0,1,8.459,20.04v2.985a1.863,1.863,0,0,1-.483,1.345,1.694,1.694,0,0,1-1.282.5,1.694,1.694,0,0,1-1.282-.5,1.863,1.863,0,0,1-.483-1.345v-2.9a19.46,19.46,0,0,1-4.855-1.03A12.043,12.043,0,0,1-3.9,16.845a1.963,1.963,0,0,1-.8-1.681,2.057,2.057,0,0,1,.4-1.282,1.2,1.2,0,0,1,.988-.525,2.784,2.784,0,0,1,1.429.546,14.429,14.429,0,0,0,8.155,2.732,7.965,7.965,0,0,0,4.813-1.261,4.184,4.184,0,0,0,1.7-3.573,2.966,2.966,0,0,0-.9-2.249,6.5,6.5,0,0,0-2.27-1.366A36.558,36.558,0,0,0,5.853,7.093C3.751,6.56.725,5.5.725,5.5a15.8,15.8,0,0,1-3.384-2.48A6.712,6.712,0,0,1-4.067-1.44,7.733,7.733,0,0,1-1.608-7.22a10.811,10.811,0,0,1,6.495-2.837V-13a1.863,1.863,0,0,1,.483-1.345,1.694,1.694,0,0,1,1.282-.5,1.694,1.694,0,0,1,1.282.5A1.863,1.863,0,0,1,8.417-13v2.943a14.092,14.092,0,0,1,4.1,1.03,11.893,11.893,0,0,1,3.468,2.207,2.07,2.07,0,0,1,.841,1.681,2.011,2.011,0,0,1-.42,1.261,1.242,1.242,0,0,1-1.009.546,2.784,2.784,0,0,1-1.429-.546,15.3,15.3,0,0,0-3.447-2.06,10.152,10.152,0,0,0-3.867-.673A7.317,7.317,0,0,0,2.028-5.266,4.391,4.391,0,0,0,.3-1.609,3.411,3.411,0,0,0,1.271.914a6.508,6.508,0,0,0,2.4,1.492A35.789,35.789,0,0,0,7.577,3.52a36.261,36.261,0,0,1,4.96,1.534,8.4,8.4,0,0,1,3.237,2.354A6.356,6.356,0,0,1,17.119,11.675Z" transform="translate(4.698 14.85)" fill="#fff"/>
</svg>
