<svg xmlns="http://www.w3.org/2000/svg" width="109.066" height="91.27" viewBox="0 0 109.066 91.27">
  <path id="Subtraction_2" data-name="Subtraction 2" d="M59.461,85.77H44.631a10.276,10.276,0,0,1-6.6-2.511,8.09,8.09,0,0,1-3-6.115V42.375a90.754,90.754,0,0,1-14.082-9.309A87.1,87.1,0,0,1,.9,10.568,6.145,6.145,0,0,1,6.132,1.224a6.084,6.084,0,0,1,5.242,2.948,73.939,73.939,0,0,0,17.267,19.32,79.389,79.389,0,0,0,12.548,8.26H62.325c.5-.256.979-.514,1.433-.767A79.136,79.136,0,0,0,71.8,25.846,76.676,76.676,0,0,0,92.15,4.172a6.129,6.129,0,0,1,8.438-2.047,6.15,6.15,0,0,1,2.044,8.44,87.2,87.2,0,0,1-20.045,22.5A90.718,90.718,0,0,1,68.5,42.375V77.144a8.334,8.334,0,0,1-2.722,6.115A9.343,9.343,0,0,1,59.461,85.77ZM51.785,23.723h-.007A11.869,11.869,0,0,1,40.214,9.173a12.264,12.264,0,0,1,.414-1.383A11.861,11.861,0,1,1,51.785,23.723Z" transform="translate(2.768 2.75)" fill="none" stroke="#fff" stroke-width="5.5"/>
</svg>
