<svg xmlns="http://www.w3.org/2000/svg" width="99.824" height="95.623" viewBox="0 0 99.824 95.623">
  <g id="Group_3454" data-name="Group 3454" transform="translate(0.5 0.628)">
    <path id="Path_392" data-name="Path 392" d="M74.254,51.716H61.5A8.9,8.9,0,0,0,64,45.7a7.112,7.112,0,0,0-2.49-5.389,7.214,7.214,0,0,0-5.782-1.6,7.078,7.078,0,0,0-5.884,7.368,8.954,8.954,0,0,0,2.422,5.594H41.2V39.675a2.081,2.081,0,0,0-.682-1.552h0a3.752,3.752,0,0,0-5.031,0,5.628,5.628,0,0,1-3.411,1.552,3.633,3.633,0,0,1-3.837-3.019,3.7,3.7,0,0,1,.836-3.019,3.633,3.633,0,0,1,2.78-1.3,5.492,5.492,0,0,1,3.735,1.62,3.7,3.7,0,0,0,4.792.119l.256-.2a2.166,2.166,0,0,0,.648-1.535V18.7A1.859,1.859,0,0,0,39.5,16.89H4.755A1.859,1.859,0,0,0,3.05,18.7V53.336a.733.733,0,0,1,0,.085h0V88.162a1.859,1.859,0,0,0,1.705,1.705h69.5a1.859,1.859,0,0,0,1.791-1.705V53.507a1.859,1.859,0,0,0-1.791-1.791ZM6.376,20.284H37.791V31.421a8.9,8.9,0,0,0-6.02-2.507,7.08,7.08,0,1,0,.375,14.156,8.868,8.868,0,0,0,5.577-2.422h0v11.12H25.784a2.115,2.115,0,0,0-1.569.682h0a3.786,3.786,0,0,0,0,5.116,5.56,5.56,0,0,1,1.569,3.411,3.688,3.688,0,1,1-7.368.239,5.492,5.492,0,0,1,1.6-3.8,3.7,3.7,0,0,0,.87-1.705c0-.2,0-.426,0-.631a3.8,3.8,0,0,0-.836-2.456.972.972,0,0,0-.2-.256,2.1,2.1,0,0,0-1.535-.648H6.376Zm0,34.843H17.513a8.9,8.9,0,0,0-2.507,6.02,7.044,7.044,0,0,0,2.49,5.389,7.948,7.948,0,0,0,1.177.8l.409.188a7.131,7.131,0,0,0,.9.358l.478.119a8.274,8.274,0,0,0,.938.153h.7a6.821,6.821,0,0,0,1.176-.1A6.975,6.975,0,0,0,29.144,60.7a8.8,8.8,0,0,0-2.4-5.577h11.1V67.065a2.183,2.183,0,0,0,.682,1.569h0a3.786,3.786,0,0,0,5.031,0,5.56,5.56,0,0,1,3.411-1.569,3.67,3.67,0,1,1,.2,7.334,5.492,5.492,0,0,1-3.718-1.705,3.752,3.752,0,0,0-4.673.034,1.432,1.432,0,0,0-.307.256,2.115,2.115,0,0,0-.665,1.535V86.457H6.376ZM72.634,86.542H41.2V75.405a8.9,8.9,0,0,0,6.106,2.507A7.078,7.078,0,0,0,54.3,69.641a6.941,6.941,0,0,0-7.351-5.867A8.7,8.7,0,0,0,41.372,66.2h0V55.127H53.413a2.149,2.149,0,0,0,1.552-.682h0a3.752,3.752,0,0,0,0-5.014A5.56,5.56,0,0,1,53.4,46.02a3.582,3.582,0,1,1,7.146-.324,5.457,5.457,0,0,1-1.569,3.786,3.718,3.718,0,0,0-.153,4.741,2.114,2.114,0,0,0,.239.307,2.183,2.183,0,0,0,1.535.665H72.634Z" transform="translate(-3.05 4.627)" fill="#fff" stroke="#fff" stroke-width="1"/>
    <path id="Path_393" data-name="Path 393" d="M82.225,26.166,55.074,4.66a1.825,1.825,0,0,0-2.541.29l-7.913,9.994a8.9,8.9,0,0,0-3.172-5.7,7.01,7.01,0,0,0-5.765-1.4A7.129,7.129,0,0,0,30.856,11.4a6.975,6.975,0,0,0,2.1,9.176,8.937,8.937,0,0,0,5.884,1.552h.085l-7.9,9.994a1.859,1.859,0,0,0,.29,2.524l10.659,8.391a2.2,2.2,0,0,0,1.705.443h0a3.735,3.735,0,0,0,3.138-3.854,5.56,5.56,0,0,1,.938-3.684A3.582,3.582,0,0,1,52.5,34.813,3.667,3.667,0,0,1,53.641,40.3a5.526,5.526,0,0,1-3.582,1.927,3.7,3.7,0,0,0-3.07,3.735,1.7,1.7,0,0,0,0,.29,2.115,2.115,0,0,0,.8,1.45L58.5,56.234a1.705,1.705,0,0,0,1.074.358,1.825,1.825,0,0,0,1.433-.648L82.515,28.69a1.893,1.893,0,0,0,.375-1.313,1.842,1.842,0,0,0-.665-1.211Zm-22.888,26.3-8.732-6.907A8.92,8.92,0,0,0,56.3,42.4,7.078,7.078,0,0,0,54.17,31.794a6.975,6.975,0,0,0-9.176,2.115,8.766,8.766,0,0,0-1.569,5.867v.085l-8.732-6.822,7.47-9.431a2.1,2.1,0,0,0,.443-1.705h0a3.769,3.769,0,0,0-3.94-3.1,5.543,5.543,0,0,1-3.7-.938,3.616,3.616,0,0,1-1.126-4.741,3.684,3.684,0,0,1,2.507-1.927,3.616,3.616,0,0,1,2.985.733,5.475,5.475,0,0,1,1.927,3.582,3.7,3.7,0,0,0,3.633,3.053h.392a2.149,2.149,0,0,0,1.45-.8L54.2,8.327,78.848,27.837Z" transform="translate(15.926 -4.273)" fill="#fff" stroke="#fff" stroke-width="1"/>
  </g>
</svg>
