<svg xmlns="http://www.w3.org/2000/svg" width="94.918" height="94.918" viewBox="0 0 94.918 94.918">
  <g id="Group_3445" data-name="Group 3445" transform="translate(0.4 0.4)">
    <path id="Path_378" data-name="Path 378" d="M49.059,2A47.059,47.059,0,1,0,96.118,49.059,47.059,47.059,0,0,0,49.059,2Zm0,86.275A39.216,39.216,0,1,1,88.275,49.059,39.216,39.216,0,0,1,49.059,88.275Z" transform="translate(-2 -2)" fill="#fff" stroke="#d5686c" stroke-width="0.8"/>
    <path id="Path_379" data-name="Path 379" d="M62.52,59.147l-2.294,2.3a15.392,15.392,0,0,1-21.235,0l-2.294-2.3A3.924,3.924,0,1,0,31.147,64.7l2.3,2.294a22.843,22.843,0,0,0,32.353,0l2.3-2.294a3.924,3.924,0,1,0-5.549-5.549Z" transform="translate(-2.549 -3.098)" fill="#fff" stroke="#d5686c" stroke-width="0.8"/>
    <circle id="Ellipse_60" data-name="Ellipse 60" cx="5.882" cy="5.882" r="5.882" transform="translate(28.235 28.235)" fill="#fff"/>
    <circle id="Ellipse_61" data-name="Ellipse 61" cx="5.882" cy="5.882" r="5.882" transform="translate(54.118 28.235)" fill="#fff"/>
  </g>
</svg>
