<svg xmlns="http://www.w3.org/2000/svg" width="120.768" height="47.124" viewBox="0 0 120.768 47.124">
  <path id="Path_272" data-name="Path 272" d="M87.431,187.077l18.78,0,.019,4.018H91.941l.017,6.625,12.642.016-.009,4.024-12.646.008.013,6.72,14.451,0,.015,4.035h-19Zm21.975,0,20.58,0,.02,4.206-8.03.02-.062,21.215h-4.5l-.029-21.216-7.992,0Zm24.286,0,4.474.011.047,10.5,11.9-.008.073-10.494,4.434-.006.007,25.454-4.481-.007-.04-10.673-11.878-.007-.05,10.681-4.5.015Zm42.471,13.088a3.779,3.779,0,1,0-3.779,3.779A3.779,3.779,0,0,0,176.163,200.161Zm-3.779-2.33a2.33,2.33,0,1,1-2.33,2.33A2.33,2.33,0,0,1,172.384,197.831Zm5.589,2.33a5.589,5.589,0,1,0-5.589,5.589A5.589,5.589,0,0,0,177.973,200.161Zm-5.589-4.272a4.272,4.272,0,1,1-4.272,4.272A4.272,4.272,0,0,1,172.384,195.89Zm7.37,4.272a7.37,7.37,0,1,0-7.37,7.371A7.37,7.37,0,0,0,179.754,200.161Zm-7.37-6.235a6.235,6.235,0,1,1-6.235,6.235A6.235,6.235,0,0,1,172.384,193.927Zm9.185,6.235a9.185,9.185,0,1,0-9.185,9.185A9.185,9.185,0,0,0,181.568,200.161Zm-9.185-8.2a8.2,8.2,0,1,1-8.2,8.2A8.2,8.2,0,0,1,172.384,191.964Zm11.015,8.2a11.015,11.015,0,1,0-11.015,11.015A11.015,11.015,0,0,0,183.4,200.161ZM172.384,190a10.161,10.161,0,1,1-10.161,10.161A10.161,10.161,0,0,1,172.384,190Zm12.775,10.161a12.775,12.775,0,1,0-12.775,12.775A12.775,12.775,0,0,0,185.159,200.161Zm-12.775-12.13a12.13,12.13,0,1,1-12.131,12.13A12.13,12.13,0,0,1,172.384,188.031Zm14.605,12.13a14.605,14.605,0,1,0-14.605,14.606A14.6,14.6,0,0,0,186.989,200.161Zm-14.605-14.083A14.083,14.083,0,1,1,158.3,200.161,14.082,14.082,0,0,1,172.384,186.079Zm1.941,14.083a1.941,1.941,0,1,0-1.941,1.941A1.941,1.941,0,0,0,174.325,200.161Zm27.7,32.518A7.918,7.918,0,0,0,208.1,230v-5.5h-6.827v2.662h3.779v1.718a4.765,4.765,0,0,1-3.027,1.095,4.706,4.706,0,0,1,0-9.4,4.115,4.115,0,0,1,3.392,1.868l2.512-1.374a6.685,6.685,0,0,0-5.9-3.2c-4.208,0-7.643,2.877-7.643,7.407C194.377,229.781,197.812,232.68,202.02,232.68Zm-12.171-.258V218.1H186.8v9l-6.634-9h-3.134v14.319h3.048v-9.339l6.827,9.339Zm-18.032,0V218.1h-3.049v14.319Zm-6.825,0-6.076-7.6,5.689-6.72h-3.757l-5.066,6.376V218.1h-3.049v14.319h3.049v-4.4l1.116-1.353,4.337,5.754Zm-22.433.258a6.559,6.559,0,0,0,5.968-3.521l-2.619-1.267a3.873,3.873,0,0,1-3.349,2.083,4.706,4.706,0,0,1,0-9.4,3.874,3.874,0,0,1,3.349,2.082l2.619-1.288a6.507,6.507,0,0,0-5.968-3.5c-4.315,0-7.643,2.984-7.643,7.407A7.282,7.282,0,0,0,142.56,232.68Zm-15.134-5.367h-4.465l2.233-6.161Zm5.2,5.11L127.1,218.1h-3.821l-5.517,14.319h3.456l.9-2.426h6.14l.9,2.426Zm-23.27-7.772h-3.22v-3.864h3.22a1.941,1.941,0,1,1,0,3.864Zm5.346,7.772-3.242-5.453a4.142,4.142,0,0,0,3.156-4.251,4.477,4.477,0,0,0-4.83-4.616h-6.7v14.319h3.049v-5.088h2.233l2.812,5.088Zm-20.114,0V220.786h4.165V218.1H87.327v2.684h4.186v11.636Zm103.579-45.669a14.085,14.085,0,0,1,9.077,3.147l-2.368,3.465c-.577-.3-1.073-.722-1.638-1.035a10.754,10.754,0,0,0-4.414-1.514c-2.017-.014-4.9.216-4.9,2.923,0,3.2,4.387,3.565,6.745,4.2a14.647,14.647,0,0,1,5.121,2.258,5.712,5.712,0,0,1,2.215,4.62c.011,6.64-6.067,9.095-11.939,7.8-2.371-.412-6.039-1.966-7.708-3.814l2.736-3.267a12.525,12.525,0,0,0,5.611,3.049c2.838.707,7.043.321,6.759-3.524-.176-1.677-2.53-2.352-3.843-2.789-3.083-.88-7.554-1.486-9.364-4.439a6.968,6.968,0,0,1-.861-4.071C189.623,188.954,193.783,186.757,198.162,186.753Z" transform="translate(-87.327 -185.556)" fill="#db252e"/>
</svg>
