<svg xmlns="http://www.w3.org/2000/svg" width="83.588" height="94.618" viewBox="0 0 83.588 94.618">
  <path id="salary" d="M82.89,63.851A3.677,3.677,0,0,1,78.155,66a26,26,0,0,0-9.184-1.66H63.456a26.133,26.133,0,0,0-26.1,26.1,3.676,3.676,0,1,1-7.353,0A33.494,33.494,0,0,1,63.456,56.985h5.515a33.334,33.334,0,0,1,11.772,2.131A3.677,3.677,0,0,1,82.89,63.851Zm7.772-39.035A24.816,24.816,0,1,1,65.846,0,24.844,24.844,0,0,1,90.662,24.816Zm-7.353,0A17.463,17.463,0,1,0,65.846,42.279,17.483,17.483,0,0,0,83.309,24.816ZM113.088,78.37c0-5.744-5.108-10.417-11.387-10.417-2.669,0-4.606-1.288-4.606-3.064a3.052,3.052,0,0,1,3.033-3.064,19.123,19.123,0,0,1,7.389,1.547,3.676,3.676,0,1,0,2.665-6.853,32.394,32.394,0,0,0-4.815-1.482V52.206a3.676,3.676,0,0,0-7.353,0V54.69a10.427,10.427,0,0,0-8.272,10.2c0,5.938,5.141,10.417,11.959,10.417,2.187,0,4.034,1.4,4.034,3.064a3.243,3.243,0,0,1-3.248,3.064,25.75,25.75,0,0,1-8.078-1.823,3.676,3.676,0,0,0-2.716,6.833,36,36,0,0,0,6.321,1.833v2.165a3.676,3.676,0,0,0,7.353,0V88.388a10.69,10.69,0,0,0,4.529-2.6,10.23,10.23,0,0,0,3.191-7.413Z" transform="translate(-29.75 0.25)" fill="#fff" stroke="#d5686c" stroke-width="0.5"/>
</svg>
