<svg xmlns="http://www.w3.org/2000/svg" width="95.219" height="95.013" viewBox="0 0 95.219 95.013">
  <path id="gift-box" d="M88.791,84.084C66.613,97.146,36.45,98.411,10.872,83.612,7.059,81.544,4.614,82,4.614,82v0a3.674,3.674,0,0,1-1.892-7.1v0c.04-.011,3.846-1.878,11.659,2.253,8.407,4.445,21.263,9.941,35.272,9.941,15.737,0,26.446-4.562,35.674-9.493a2.744,2.744,0,0,0,1.132-3.676,2.928,2.928,0,0,0-3.805-1.2C72.949,76.867,52.013,82.895,37.3,78.7a3.677,3.677,0,0,1,1.869-7.112,38.635,38.635,0,0,0,9.912,1.166h0c4.012-.139,9.487-.4,10.986-3.523a3.541,3.541,0,0,0-2.386-4.706,6.15,6.15,0,0,0-2.436-.109,48.216,48.216,0,0,1-6.5.453c-11.366,0-19.013-4.343-24.836-7.65-3.889-2.209-6.961-3.953-9.937-3.953a38.343,38.343,0,0,0-9.2,1.671,3.677,3.677,0,0,1-2.2-7.018c9.249-2.562,14.413-3.615,24.963,2.906,6.619,3.759,14.121,8.018,26.718,6.305a13.339,13.339,0,0,1,5.4.312,10.975,10.975,0,0,1,7.8,12.692c4.715-1.3,9.047-2.944,12.59-4.289,12.147-4.419,19.76,11.848,8.747,18.243Zm-1.1-61.527V37.633A11.044,11.044,0,0,1,76.657,48.665H45.586A11.044,11.044,0,0,1,34.554,37.633V22.557A11.044,11.044,0,0,1,45.586,11.526h2.366c-.745-.9-1.218-1.578-1.374-1.811a3.677,3.677,0,0,1,6.106-4.1,18.607,18.607,0,0,0,5.037,4.852v-6.5a3.677,3.677,0,0,1,7.354,0v6.054a19.564,19.564,0,0,0,4.351-4.4,3.677,3.677,0,1,1,6.106,4.1c-.156.233-.63.916-1.374,1.811h2.5A11.044,11.044,0,0,1,87.688,22.557Zm-42.1,18.753H57.72V18.88H45.586a3.681,3.681,0,0,0-3.677,3.677V37.633A3.681,3.681,0,0,0,45.586,41.311ZM80.334,22.557a3.681,3.681,0,0,0-3.677-3.677H65.074v22.43H76.657a3.681,3.681,0,0,0,3.677-3.677Z" transform="translate(0.581 0.215)" fill="#fff" stroke="#d5686c" stroke-width="1"/>
</svg>
