<svg version="1.1" id="Layer_1" xmlns="http://www.w3.org/2000/svg" xmlns:xlink="http://www.w3.org/1999/xlink" x="0px" y="0px" width="87px" height="141px" viewBox="0 0 87 141" enable-background="new 0 0 87 141" xml:space="preserve">
	<g>
		<path fill="#333333" d="M86.846,80.345c0-8.467,0-42.914,0-51.381c-28.896,0-57.794,0-86.691,0   c0,28.897,0.001,141.072,0.001,141.072h86.69c0,0,0-44.794,0-52.84c-0.064,0.043-0.139,0.073-0.191,0.128   c-2.234,2.187-4.926,3.185-8.039,3.182c-14.895-0.011-29.791-0.004-44.685-0.01c-0.591,0-1.183-0.061-1.771-0.114   c-0.729-0.067-1.456-0.157-2.24-0.243c0,0.264,0,0.469,0,0.674c0,6.734,0,13.469-0.002,20.203c0,0.11-0.01,0.223-0.017,0.334H22.27   c-0.007-0.097-0.016-0.191-0.016-0.287c-0.002-21.119-0.002-42.237-0.002-63.356c0-0.188,0-0.38,0-0.631c0.208,0,0.379,0,0.549,0   c18.683,0,37.364,0.001,56.045-0.003c2.959,0,5.51,1.008,7.666,3.029C86.611,80.195,86.734,80.266,86.846,80.345z"/>
		<path fill="#333333" d="M78.631,84.889C63.674,84.91,48.715,84.9,33.758,84.906c-0.365,0-0.741,0.035-1.093,0.127   c-1.685,0.443-2.745,1.931-2.745,3.826c-0.003,6.605-0.003,13.211,0.003,19.816c0,0.366,0.021,0.741,0.104,1.098   c0.386,1.684,1.88,2.805,3.716,2.805c7.487,0.002,14.975,0.001,22.461,0.001c3.463,0,6.926,0,10.389,0   c4.041,0,8.08-0.003,12.121,0.002c2.328,0.003,3.787-1.897,3.742-3.483c-0.019-0.592,0.026-1.186,0.026-1.777   c0.002-6.092-0.03-12.186,0.019-18.275C82.52,86.352,80.564,84.885,78.631,84.889z"/>
		<rect x="0.154" fill="#333333" width="86.691" height="43.834"/>
	</g>
</svg>