<svg xmlns="http://www.w3.org/2000/svg" width="15" height="15" viewBox="0 0 15 15">
  <path id="Icon_material-settings" data-name="Icon material-settings" d="M16.637,11.235a5.032,5.032,0,0,0,0-1.47l1.627-1.238a.371.371,0,0,0,.093-.48l-1.542-2.6a.393.393,0,0,0-.47-.165l-1.92.75a5.673,5.673,0,0,0-1.3-.735l-.293-1.988A.373.373,0,0,0,12.45,3H9.366a.373.373,0,0,0-.378.315L8.695,5.3a5.966,5.966,0,0,0-1.3.735l-1.92-.75A.381.381,0,0,0,5,5.453l-1.542,2.6a.363.363,0,0,0,.093.48L5.179,9.765a5.788,5.788,0,0,0-.054.735,5.788,5.788,0,0,0,.054.735L3.552,12.472a.371.371,0,0,0-.093.48L5,15.548a.393.393,0,0,0,.47.165l1.92-.75a5.673,5.673,0,0,0,1.3.735l.293,1.987A.373.373,0,0,0,9.366,18H12.45a.373.373,0,0,0,.378-.315l.293-1.988a5.966,5.966,0,0,0,1.3-.735l1.92.75a.381.381,0,0,0,.47-.165l1.542-2.6a.371.371,0,0,0-.093-.48l-1.627-1.238Zm-5.729,1.89a2.626,2.626,0,1,1,2.7-2.625A2.666,2.666,0,0,1,10.908,13.125Z" transform="translate(-3.406 -3)" fill="#fff"/>
</svg>
