<svg xmlns="http://www.w3.org/2000/svg" width="81.726" height="81.726" viewBox="0 0 81.726 81.726">
  <path id="link-2" d="M19.827,81.728A19.6,19.6,0,0,1,5.872,75.855,19.583,19.583,0,0,1,.013,61.16C.225,55.486,2.788,50.036,7.425,45.4l8.349-8.383A3.192,3.192,0,1,1,20.3,41.521l-8.354,8.388c-6.77,6.77-7.408,15.581-1.558,21.431s14.661,5.212,21.426-1.553L43.288,58.312c3.478-3.478,5.4-7.449,5.546-11.484a13.264,13.264,0,0,0-3.993-9.942,14.129,14.129,0,0,0-2.99-2.292,3.192,3.192,0,0,1,3.16-5.548,20.517,20.517,0,0,1,4.344,3.326,19.582,19.582,0,0,1,5.859,14.7C55,52.74,52.44,58.19,47.8,62.827L36.328,74.3c-4.637,4.637-10.087,7.2-15.761,7.412C20.32,81.723,20.073,81.728,19.827,81.728ZM41.067,51.49a3.192,3.192,0,0,0-1.194-4.354,14.129,14.129,0,0,1-2.99-2.292c-5.85-5.851-5.212-14.662,1.553-21.427L49.912,11.942c6.765-6.765,15.576-7.4,21.426-1.553S76.55,25.05,69.78,31.82l-8.354,8.388a3.192,3.192,0,1,0,4.524,4.505L74.3,36.33c4.637-4.637,7.2-10.087,7.412-15.761a19.583,19.583,0,0,0-5.859-14.7A19.588,19.588,0,0,0,61.158.015C55.484.227,50.035,2.79,45.4,7.428L33.923,18.9c-4.637,4.637-7.2,10.087-7.412,15.761a19.583,19.583,0,0,0,5.859,14.7,20.519,20.519,0,0,0,4.344,3.326,3.191,3.191,0,0,0,4.354-1.194Z" transform="translate(0.001 -0.002)" fill="#fff"/>
</svg>
