<svg xmlns="http://www.w3.org/2000/svg" width="95.156" height="95.09" viewBox="0 0 95.156 95.09">
  <path id="care" d="M0,78.443a3.691,3.691,0,0,0,4.548,3.573c.28-.05,2.675-.4,6.334,1.59C36.868,98.486,66.4,97.119,88.8,84.077a10.121,10.121,0,0,0,4.19-13.557,10.262,10.262,0,0,0-12.937-4.684c-3.543,1.345-7.874,2.988-12.589,4.289a10.94,10.94,0,0,0-.652-6.419,10.782,10.782,0,0,0-7.149-6.273,13.336,13.336,0,0,0-5.4-.312C33.089,60,27.749,46.646,13.973,45.9A34.461,34.461,0,0,0,2.58,47.91a3.677,3.677,0,0,0,2.2,7.018,27.371,27.371,0,0,1,9.2-1.671c2.976,0,6.048,1.744,9.937,3.953,6.87,3.9,16.279,9.245,31.338,7.2a6.147,6.147,0,0,1,2.435.109A3.409,3.409,0,0,1,60.01,66.51c.977,2.358-.412,4.192-2.794,5.07a24.622,24.622,0,0,1-8.025,1.164h0a40.118,40.118,0,0,1-10.013-1.166,3.677,3.677,0,1,0-1.869,7.112A48.064,48.064,0,0,0,49.068,80.1C63.125,80.075,75,75.617,82.657,72.711a3,3,0,0,1,3.8,1.2,2.744,2.744,0,0,1-1.131,3.679c-22.2,12.822-48.469,12.379-70.941-.449-5.9-3.2-10.343-2.542-11.442-2.3A3.677,3.677,0,0,0,0,78.443ZM29.016,32.686c6.261,6.553,14.776,9.128,20.07,9.949v4.923a3.677,3.677,0,0,0,7.354,0V42.69C73.208,40.359,86.606,27.632,85.25,7.248a7.238,7.238,0,0,0-4.161-6.218,7.393,7.393,0,0,0-7.6.751c-3.167,2.367-5.914,4.16-8.337,5.741-2.21,1.442-4.119,2.688-5.828,4.028a3.677,3.677,0,0,0,4.537,5.787c4.461-3.346,8.835-5.716,14.031-9.667a.053.053,0,0,1,.021,0c.367,8.438-1.768,15.144-6.347,19.937C66.653,32.742,60.11,34.588,56.3,35.247,55.079,13.109,47.785,13.011,32.41,1.781a7.392,7.392,0,0,0-7.6-.751,7.239,7.239,0,0,0-4.161,6.218c-.482,10.56,2.335,19.119,8.372,25.437ZM27.986,7.666H28c3.358,2.513,6.209,4.374,8.725,6.016,8.576,5.6,11.276,7.36,12.2,21.444-3.874-.754-9.963-2.672-14.594-7.519-4.581-4.794-6.716-11.5-6.347-19.94Z" transform="translate(0.51 0.275)" fill="#fff" stroke="#d5686c" stroke-width="1"/>
</svg>
