<svg xmlns="http://www.w3.org/2000/svg" width="95.028" height="95.133" viewBox="0 0 95.028 95.133">
  <g id="save-money" transform="translate(0.548 0.516)">
    <path id="Path_361" data-name="Path 361" d="M92.49,8.06A10.089,10.089,0,0,0,80.761.136l-.074.018A10.167,10.167,0,0,0,72.543,11.13c.055.827.147,1.783.221,2.776.46,5.405,1.177,13.7-.46,22.65-.184-.184-.368-.368-.57-.533A10.862,10.862,0,0,0,55.592,38.56a11.956,11.956,0,0,0-1.6,4.045c-1.6,7.758-6.343,14.377-9.873,19.194-2.794,3.806-5.442,7.391-6.931,12.263a30.114,30.114,0,0,0-.882,8.457,3.845,3.845,0,0,1-1.121,2.776A3.918,3.918,0,0,1,28.6,83.657c-1.655-5.81-5.129-11.307-8.806-17.116-3.475-5.5-7.06-11.178-8.788-16.877C6.4,34.423,7.774,19.385,9.741,9.457a2.757,2.757,0,0,1,3.181-2.151L13,7.324a3.006,3.006,0,0,1,2.151,3.309c-.055.772-.092,1.655-.221,2.647-3.567,30.684,8.622,45.061,8.769,45.3a3.678,3.678,0,0,0,3.107,1.71,3.631,3.631,0,0,0,1.949-.57,3.685,3.685,0,0,0,1.158-5.056c-3.052-4.854-3.364-8.126-3.291-9.652a4.756,4.756,0,0,1,1.434-3.4,3.385,3.385,0,0,1,2.611-.735,3.422,3.422,0,0,1,2.574,1.636,8.573,8.573,0,0,1,.717,2.041c.055.221.129.441.184.662A58.149,58.149,0,0,0,36.6,52.165a3.668,3.668,0,0,0,4.8,1.949,3.751,3.751,0,0,0,1.949-4.8c-1.581-4.394-2.261-6.49-2.316-6.692a14.438,14.438,0,0,0-1.6-4.045,10.862,10.862,0,0,0-16.142-2.537c-.2.165-.386.349-.57.533-1.636-8.953-.938-17.245-.46-22.65.092-.993.165-1.949.221-2.776A10.167,10.167,0,0,0,14.337.173L14.264.154A10.1,10.1,0,0,0,2.516,8.06C.383,18.815-1.106,35.122,3.95,51.815c2.022,6.655,5.883,12.759,9.615,18.66,3.383,5.368,6.6,10.424,7.961,15.222A11.257,11.257,0,0,0,40.388,90.46a11.1,11.1,0,0,0,3.236-8.034,25.834,25.834,0,0,1,.607-6.324A29.919,29.919,0,0,1,50,66.155c9.358-11.6,10.976-21.381,11.049-21.6a8.283,8.283,0,0,1,.717-2.041,3.374,3.374,0,0,1,2.574-1.636,3.314,3.314,0,0,1,2.611.735,4.832,4.832,0,0,1,1.434,3.4c.092,1.526-.221,4.8-3.291,9.652a3.668,3.668,0,0,0,6.214,3.9c.147-.221,11.564-13.7,8.769-45.3-.092-1.011-.165-1.875-.221-2.647a2.936,2.936,0,0,1,2.188-3.272l.074-.018A2.728,2.728,0,0,1,85.3,9.475c1.967,9.928,3.364,24.966-1.269,40.207-1.728,5.7-5.313,11.417-8.769,16.951-5.037,8.034-9.8,15.627-9.8,23.79a3.659,3.659,0,1,0,7.317,0c0-6.049,4.21-12.777,8.678-19.892,3.714-5.938,7.574-12.079,9.578-18.716,5.074-16.675,3.585-33,1.452-43.755Z" transform="translate(-0.537 0.036)" fill="#fff" stroke="#d5686c" stroke-width="1"/>
    <path id="Path_362" data-name="Path 362" d="M199.939,403.2C200.174,402.5,199.7,404.146,199.939,403.2Z" transform="translate(-163.273 -329.271)" fill="#fff"/>
  </g>
</svg>
